<?xml version="1.0" encoding="utf-8"?>
<!-- Generator: Adobe Illustrator 18.1.1, SVG Export Plug-In . SVG Version: 6.00 Build 0)  -->
<svg version="1.0" id="图层_1" xmlns="http://www.w3.org/2000/svg" xmlns:xlink="http://www.w3.org/1999/xlink" x="0px" y="0px"
	 viewBox="0 0 44 44" enable-background="new 0 0 44 44" xml:space="preserve">
<path fill="#3E3A39" d="M21.9,35.7c-2.7,0-5.3-0.6-7.7-1.9c-1.9-1-3.7-2.4-5.3-4.1c-2.7-2.9-4-5.8-4-5.9l-0.1-0.3l0.2-0.3
	C5,23,6.2,20.5,9,18c1.6-1.5,3.4-2.6,5.3-3.5c2.4-1.1,5-1.6,7.7-1.6c2.7,0,5.3,0.6,7.7,1.7c1.9,0.9,3.7,2.2,5.3,3.8
	c2.7,2.7,4,5.4,4,5.5l0.2,0.3l-0.2,0.3c-0.1,0.1-1.3,2.8-4,5.5c-1.6,1.6-3.4,2.9-5.3,3.8C27.2,35.1,24.6,35.7,21.9,35.7z M6.6,23.5
	c0.1,0.3,0.4,0.8,0.7,1.4c0.6,0.9,1.5,2.4,2.8,3.8c1.5,1.6,3.1,2.8,4.8,3.7c2.2,1.1,4.5,1.7,6.9,1.7c2.5,0,4.8-0.5,7-1.6
	c1.7-0.8,3.4-2,4.8-3.4c1.3-1.3,2.3-2.6,2.8-3.5c0.3-0.5,0.6-1,0.7-1.3c-0.1-0.3-0.4-0.7-0.7-1.3c-0.6-0.9-1.5-2.2-2.8-3.5
	c-1.5-1.5-3.1-2.6-4.8-3.4c-2.2-1-4.5-1.6-7-1.6c-2.5,0-4.8,0.5-7,1.4c-1.7,0.8-3.4,1.8-4.8,3.2c-1.3,1.2-2.3,2.4-2.8,3.2
	C7,22.9,6.7,23.3,6.6,23.5z"/>
<path fill="#3E3A39" d="M21.9,31c-0.9,0-1.7-0.2-2.5-0.5c-0.8-0.3-1.5-0.8-2.1-1.4c-0.6-0.6-1.1-1.3-1.4-2c-0.3-0.8-0.5-1.6-0.5-2.5
	c0-0.9,0.2-1.7,0.5-2.5c0.3-0.8,0.8-1.5,1.4-2c0.6-0.6,1.3-1,2.1-1.4c0.8-0.3,1.7-0.5,2.5-0.5c0.9,0,1.7,0.2,2.5,0.5
	c0.8,0.3,1.5,0.8,2.1,1.4c0.6,0.6,1.1,1.3,1.4,2c0.3,0.8,0.5,1.6,0.5,2.5c0,0.9-0.2,1.7-0.5,2.5c-0.3,0.8-0.8,1.5-1.4,2
	c-0.6,0.6-1.3,1-2.1,1.4C23.6,30.9,22.8,31,21.9,31z M21.9,19.9c-1.3,0-2.5,0.5-3.5,1.4c-0.9,0.9-1.4,2.1-1.4,3.4
	c0,1.3,0.5,2.5,1.4,3.4c0.9,0.9,2.1,1.4,3.5,1.4c1.3,0,2.5-0.5,3.5-1.4c0.9-0.9,1.4-2.1,1.4-3.4c0-1.3-0.5-2.5-1.4-3.4
	C24.5,20.4,23.2,19.9,21.9,19.9z"/>
<path fill="#3E3A39" d="M22,20.9c-2,0-3.7,1.7-3.7,3.7c0,0,0,0.1,0,0.1c0.3-0.3,0.8-0.5,1.2-0.5c1,0,1.9,0.8,1.9,1.9
	c0,0.8-0.5,1.5-1.2,1.7c0.5,0.3,1.2,0.5,1.9,0.5c2,0,3.7-1.7,3.7-3.7C25.7,22.6,24.1,20.9,22,20.9z"/>
<g>
	
		<rect x="39.4" y="18" transform="matrix(0.5975 0.8019 -0.8019 0.5975 32.1411 -24.1922)" fill="#3E3A39" width="1.5" height="3.9"/>
	
		<rect x="36.4" y="14.6" transform="matrix(0.7172 0.6969 -0.6969 0.7172 22.045 -21.2452)" fill="#3E3A39" width="1.5" height="3.9"/>
	
		<rect x="33" y="11.7" transform="matrix(0.8248 0.5654 -0.5654 0.8248 13.6419 -16.669)" fill="#3E3A39" width="1.5" height="3.9"/>
	<rect x="29" y="9.5" transform="matrix(0.9211 0.3892 -0.3892 0.9211 6.8211 -10.6743)" fill="#3E3A39" width="1.5" height="3.9"/>
	<rect x="24.6" y="8.3" transform="matrix(0.9857 0.1685 -0.1685 0.9857 2.0834 -4.132)" fill="#3E3A39" width="1.5" height="3.9"/>
	
		<rect x="18.9" y="9.2" transform="matrix(6.920959e-02 0.9976 -0.9976 6.920959e-02 29.3753 -11.5046)" fill="#3E3A39" width="3.9" height="1.5"/>
	<rect x="14.4" y="9.9" transform="matrix(0.245 0.9695 -0.9695 0.245 22.7584 -7.8189)" fill="#3E3A39" width="3.9" height="1.5"/>
	
		<rect x="10.2" y="11.5" transform="matrix(0.4295 0.9031 -0.9031 0.4295 17.9709 -3.9891)" fill="#3E3A39" width="3.9" height="1.5"/>
	
		<rect x="6.3" y="13.8" transform="matrix(0.6074 0.7944 -0.7944 0.6074 14.8377 -0.8471)" fill="#3E3A39" width="3.9" height="1.5"/>
	<rect x="3" y="16.9" transform="matrix(0.7611 0.6487 -0.6487 0.7611 12.6762 0.9956)" fill="#3E3A39" width="3.9" height="1.5"/>
</g>
</svg>
