<?xml version="1.0" encoding="utf-8"?>
<!-- Generator: Adobe Illustrator 18.1.1, SVG Export Plug-In . SVG Version: 6.00 Build 0)  -->
<svg version="1.0" id="图层_1" xmlns="http://www.w3.org/2000/svg" xmlns:xlink="http://www.w3.org/1999/xlink" x="0px" y="0px"
	 viewBox="0 0 44 44" enable-background="new 0 0 44 44" xml:space="preserve">
<g>
	<g>
		<path fill="none" d="M6.7,20.3c0,0,4.1,8.4,15.7,8.8c11.1-0.1,15.7-8.8,15.7-8.8"/>
		<path fill="#231815" d="M22.5,30c-12-0.4-16.4-9-16.5-9.3l1.7-0.8c0.2,0.3,4.1,7.9,15,8.3C33,28,37.3,20.2,37.5,19.9l1.7,0.8
			C38.8,21.1,34,29.8,22.5,30z"/>
	</g>
	<g>
		<path fill="none" stroke="#231815" stroke-width="2" stroke-miterlimit="10" d="M4,26.6l2-1.5l0.1,0.1l-2,1.5L4,26.6z"/>
		<path fill="none" stroke="#231815" stroke-width="2" stroke-miterlimit="10" d="M7.4,29.9l1.5-2L9,28.1l-1.5,2L7.4,29.9z"/>
		<path fill="none" stroke="#231815" stroke-width="2" stroke-miterlimit="10" d="M11.3,32.4l1.1-2.2l0.2,0.1l-1.1,2.2L11.3,32.4z"
			/>
		<path fill="none" stroke="#231815" stroke-width="2" stroke-miterlimit="10" d="M15.7,34.1l0.6-2.4l0.2,0l-0.6,2.4L15.7,34.1z"/>
		<path fill="none" stroke="#231815" stroke-width="2" stroke-miterlimit="10" d="M20.2,34.9l0.2-2.5l0.2,0l-0.2,2.5L20.2,34.9z"/>
		<path fill="none" stroke="#231815" stroke-width="2" stroke-miterlimit="10" d="M24.9,35l-0.2-2.5l0.2,0l0.2,2.5L24.9,35z"/>
		<path fill="none" stroke="#231815" stroke-width="2" stroke-miterlimit="10" d="M29.5,34.2l-0.7-2.4l0.2-0.1l0.7,2.4L29.5,34.2z"
			/>
		<path fill="none" stroke="#231815" stroke-width="2" stroke-miterlimit="10" d="M33.8,32.3l-1.2-2.2l0.2-0.1l1.2,2.2L33.8,32.3z"
			/>
		<path fill="none" stroke="#231815" stroke-width="2" stroke-miterlimit="10" d="M37.7,29.7l-1.6-1.9l0.1-0.1l1.6,1.9L37.7,29.7z"
			/>
		<path fill="none" stroke="#231815" stroke-width="2" stroke-miterlimit="10" d="M41,26.4l-1.9-1.6l0.1-0.1l1.9,1.6L41,26.4z"/>
	</g>
	<text transform="matrix(0.6158 -0.7879 0.7879 0.6158 6.6198 18.3493)" font-family="'MicrosoftYaHei'" font-size="3.2034">·</text>
	
		<text transform="matrix(0.6158 -0.7879 0.7879 0.6158 6.6198 18.3493)" fill="none" stroke="#231815" stroke-width="2" stroke-miterlimit="10" font-family="'MicrosoftYaHei'" font-size="3.2034">·</text>
	<text transform="matrix(0.6158 -0.7879 0.7879 0.6158 9.4079 15.3165)" font-family="'MicrosoftYaHei'" font-size="3.2034">·</text>
	
		<text transform="matrix(0.6158 -0.7879 0.7879 0.6158 9.4079 15.3165)" fill="none" stroke="#231815" stroke-width="2" stroke-miterlimit="10" font-family="'MicrosoftYaHei'" font-size="3.2034">·</text>
	<text transform="matrix(0.6158 -0.7879 0.7879 0.6158 12.6992 12.8403)" font-family="'MicrosoftYaHei'" font-size="3.2034">·</text>
	
		<text transform="matrix(0.6158 -0.7879 0.7879 0.6158 12.6992 12.8403)" fill="none" stroke="#231815" stroke-width="2" stroke-miterlimit="10" font-family="'MicrosoftYaHei'" font-size="3.2034">·</text>
	<text transform="matrix(0.6158 -0.7879 0.7879 0.6158 16.4008 11.0743)" font-family="'MicrosoftYaHei'" font-size="3.2034">·</text>
	
		<text transform="matrix(0.6158 -0.7879 0.7879 0.6158 16.4008 11.0743)" fill="none" stroke="#231815" stroke-width="2" stroke-miterlimit="10" font-family="'MicrosoftYaHei'" font-size="3.2034">·</text>
	<text transform="matrix(0.6158 -0.7879 0.7879 0.6158 20.3936 10.1904)" font-family="'MicrosoftYaHei'" font-size="3.2034">·</text>
	
		<text transform="matrix(0.6158 -0.7879 0.7879 0.6158 20.3936 10.1904)" fill="none" stroke="#231815" stroke-width="2" stroke-miterlimit="10" font-family="'MicrosoftYaHei'" font-size="3.2034">·</text>
	<text transform="matrix(0.6158 -0.7879 0.7879 0.6158 24.4986 10.2492)" font-family="'MicrosoftYaHei'" font-size="3.2034">·</text>
	
		<text transform="matrix(0.6158 -0.7879 0.7879 0.6158 24.4986 10.2492)" fill="none" stroke="#231815" stroke-width="2" stroke-miterlimit="10" font-family="'MicrosoftYaHei'" font-size="3.2034">·</text>
	<text transform="matrix(0.6158 -0.7879 0.7879 0.6158 28.5055 11.1423)" font-family="'MicrosoftYaHei'" font-size="3.2034">·</text>
	
		<text transform="matrix(0.6158 -0.7879 0.7879 0.6158 28.5055 11.1423)" fill="none" stroke="#231815" stroke-width="2" stroke-miterlimit="10" font-family="'MicrosoftYaHei'" font-size="3.2034">·</text>
	<text transform="matrix(0.6158 -0.7879 0.7879 0.6158 32.221 12.8745)" font-family="'MicrosoftYaHei'" font-size="3.2034">·</text>
	
		<text transform="matrix(0.6158 -0.7879 0.7879 0.6158 32.221 12.8745)" fill="none" stroke="#231815" stroke-width="2" stroke-miterlimit="10" font-family="'MicrosoftYaHei'" font-size="3.2034">·</text>
	<text transform="matrix(0.6158 -0.7879 0.7879 0.6158 35.492 15.3625)" font-family="'MicrosoftYaHei'" font-size="3.2034">·</text>
	
		<text transform="matrix(0.6158 -0.7879 0.7879 0.6158 35.492 15.3625)" fill="none" stroke="#1E1512" stroke-width="2" stroke-miterlimit="10" font-family="'MicrosoftYaHei'" font-size="3.2034">·</text>
	<text transform="matrix(0.6158 -0.7879 0.7879 0.6158 38.2352 18.445)" font-family="'MicrosoftYaHei'" font-size="3.2034">·</text>
	
		<text transform="matrix(0.6158 -0.7879 0.7879 0.6158 38.2352 18.445)" fill="none" stroke="#1E1512" stroke-width="2" stroke-miterlimit="10" font-family="'MicrosoftYaHei'" font-size="3.2034">·</text>
</g>
</svg>
