<?xml version="1.0" encoding="utf-8"?>
<!-- Generator: Adobe Illustrator 18.1.1, SVG Export Plug-In . SVG Version: 6.00 Build 0)  -->
<svg version="1.0" id="图层_1" xmlns="http://www.w3.org/2000/svg" xmlns:xlink="http://www.w3.org/1999/xlink" x="0px" y="0px"
	 viewBox="0 0 44 44" enable-background="new 0 0 44 44" xml:space="preserve">
<g>
	<path fill="#FFFFFF" d="M5.9,20.3c0,0,4,8.1,15.2,8.5c10.8-0.1,15.2-8.5,15.2-8.5"/>
	<path fill="#231815" d="M21.2,29.7c-11.6-0.4-15.9-8.7-16-9l1.6-0.8c0.2,0.3,4,7.7,14.5,8c10-0.1,14.2-7.7,14.4-8l1.6,0.8
		C37,21.1,32.3,29.5,21.2,29.7z"/>
</g>
<g>
	<polygon fill="#231815" points="39.6,20.9 35.2,21.6 35.3,20.4 39.6,20.9 	"/>
</g>
<polygon fill="#3E3A39" points="34.6,26.1 30.4,25.8 33.7,23.4 37.3,27 "/>
<polygon fill="#3E3A39" points="31,31.5 26.5,28.8 28.3,27.9 31,31.5 "/>
<polygon fill="#727171" points="22,34.4 22,34.4 19.3,29 21.1,29 "/>
<path fill="none" d="M8.8,19.4c0,0,5.4,5.4,11.3,5.7s14.2-5.7,14.2-5.7"/>
</svg>
